<?xml version="1.0" standalone="no"?>
<!DOCTYPE svg PUBLIC "-//W3C//DTD SVG 20010904//EN"
 "http://www.w3.org/TR/2001/REC-SVG-20010904/DTD/svg10.dtd">
<svg version="1.0" xmlns="http://www.w3.org/2000/svg"
 width="260.000000pt" height="260.000000pt" viewBox="0 0 260.000000 260.000000"
 preserveAspectRatio="xMidYMid meet">
<metadata>
Created by potrace 1.14, written by Peter Selinger 2001-2017
</metadata>
<g transform="translate(0.000000,260.000000) scale(0.100000,-0.100000)"
fill="#000000" stroke="none">
<path d="M1140 2589 c-158 -20 -359 -88 -493 -166 -99 -58 -213 -150 -297
-241 l-82 -87 354 -6 c380 -6 386 -6 484 -64 135 -79 231 -310 241 -585 9
-227 -31 -534 -84 -635 -87 -167 -173 -232 -347 -260 -117 -18 -640 -22 -652
-4 -3 6 8 30 25 54 65 90 63 73 65 695 1 605 -1 630 -50 716 -41 72 -46 72
-92 2 -87 -133 -146 -278 -183 -449 -19 -84 -23 -133 -23 -259 0 -228 31 -354
140 -575 73 -149 120 -216 237 -334 108 -109 189 -169 317 -235 215 -110 375
-149 605 -149 103 0 175 6 230 17 255 55 493 176 663 340 197 189 318 408 378
687 26 117 26 380 1 497 -39 176 -105 338 -194 470 -145 215 -370 398 -598
486 -217 83 -436 112 -645 85z m965 -521 c221 -66 315 -212 315 -486 -1 -354
-145 -497 -522 -519 l-108 -6 0 -167 c0 -185 11 -237 61 -301 15 -20 25 -39
22 -43 -8 -8 -493 -8 -493 0 0 3 11 20 25 38 13 18 34 54 46 81 21 48 22 57
23 635 0 322 -3 602 -7 622 -4 20 -28 62 -52 94 -24 31 -42 61 -39 66 4 6 138
8 343 5 261 -3 347 -7 386 -19z"/>
<path d="M1785 1750 c-4 -65 -4 -194 0 -285 l8 -167 114 4 114 3 39 41 c50 54
64 121 58 264 -10 203 -62 260 -237 260 l-89 0 -7 -120z"/>
<path d="M667 1808 c-9 -103 4 -1021 16 -1035 6 -8 36 -13 81 -13 209 0 289
169 272 572 -18 423 -79 537 -287 538 l-76 0 -6 -62z"/>
</g>
</svg>
